<svg xmlns="http://www.w3.org/2000/svg" viewBox="-12 -12 1223 464" role="img" aria-label="OnSide Software"><path d="M0 0 C0.33 79.53 0.66 159.06 1 241 C8.26 243.31 15.52 245.62 23 248 C23.99 248.33 24.98 248.66 26 249 C26 251.64 26 254.28 26 257 C25.37 257.18 24.74 257.36 24.1 257.55 C13.49 260.61 2.89 263.67 -7.62 267.06 C-15.67 269.66 -23.8 271.91 -31.97 274.08 C-32.86 274.32 -33.75 274.56 -34.66 274.8 C-35.06 274.9 -35.06 274.9 -37.05 275.43 C-39 276 -39 276 -41 277 C-43.31 277 -45.62 277 -48 277 C-48 270.07 -48 263.14 -48 256 C-51.45 258.07 -54.02 259.78 -57 262.31 C-72.3 274.37 -92.92 278.63 -112 277 C-127.57 274.97 -140.25 268.39 -152 258 C-152.31 257.74 -152.31 257.74 -153.86 256.43 C-168.69 242.92 -177.98 219.58 -179.19 199.9 C-179.27 196.66 -179.28 193.43 -179.25 190.19 C-179.25 189.61 -179.25 189.61 -179.23 186.71 C-178.92 162.87 -172.12 140.93 -156 123 C-155.74 122.7 -155.74 122.7 -154.4 121.15 C-140.06 105.65 -118.76 96.54 -97.89 95.55 C-81.01 95.13 -67.77 97.08 -52 103 C-51.67 79.9 -51.34 56.8 -51 33 C-54.63 32.01 -58.26 31.02 -62 30 C-65.08 28.97 -68.14 27.92 -71.19 26.81 C-71.95 26.54 -72.71 26.27 -73.49 25.99 C-75.33 25.33 -77.17 24.66 -79 24 C-79 21.36 -79 18.72 -79 16 C-71.3 13.82 -63.57 11.95 -55.75 10.25 C-48.05 8.57 -40.37 6.86 -32.7 5.05 C-30.62 4.57 -28.54 4.09 -26.47 3.6 C-25.13 3.29 -23.8 2.97 -22.46 2.65 C-20.58 2.2 -18.69 1.76 -16.81 1.32 C-15.73 1.07 -14.66 0.81 -13.55 0.55 C-10 0 -10 0 0 0 Z M-106.28 123.73 C-123.95 146.98 -125.37 177.37 -121.88 205.38 C-119.71 220.65 -114.79 235.42 -103 246 C-102.26 246.7 -101.51 247.4 -100.75 248.12 C-92.93 253.46 -84.26 254.05 -75 253 C-65.82 250.69 -59.55 245.64 -53 239 C-52.34 238.34 -51.68 237.68 -51 237 C-50.79 234.08 -50.71 231.26 -50.71 228.33 C-50.7 227.44 -50.7 226.54 -50.69 225.61 C-50.67 222.63 -50.67 219.65 -50.66 216.66 C-50.66 214.59 -50.65 212.51 -50.64 210.44 C-50.63 206.07 -50.63 201.71 -50.63 197.35 C-50.63 191.78 -50.6 186.22 -50.57 180.65 C-50.55 176.36 -50.54 172.06 -50.54 167.77 C-50.54 165.72 -50.53 163.67 -50.52 161.62 C-50.41 146.17 -51.36 133.16 -62 121 C-69.5 114.2 -77.05 113.37 -86.75 113.62 C-94.67 114.11 -100.97 117.96 -106.28 123.73 Z " fill="#243044" transform="translate(982,5)"/><path d="M0 0 C32.2 -1.21 64.91 10.25 89.33 31.19 C89.84 31.63 90.35 32.06 90.88 32.51 C116.77 54.68 133.92 87.1 136.57 121.28 C137.59 145.39 133.99 167.49 123.33 189.19 C123 189.87 122.68 190.55 122.35 191.24 C117.75 200.79 112.15 209.1 105.33 217.19 C104.49 218.2 103.64 219.21 102.77 220.25 C88.11 236.99 69.97 248.19 49.33 256.19 C48.36 256.57 47.39 256.95 46.39 257.34 C16.61 268.12 -20.56 266.24 -49.25 253 C-60.68 247.52 -71.07 241.49 -80.67 233.19 C-81.17 232.77 -81.68 232.35 -82.2 231.91 C-107.53 210.58 -124.1 178.03 -127.67 145.19 C-130.16 108.15 -119.26 73.33 -95.02 44.98 C-86.38 35.17 -76.71 27.23 -65.67 20.19 C-64.59 19.5 -63.52 18.81 -62.41 18.1 C-43.39 6.58 -22.05 1.15 0 0 Z M-26.67 39.19 C-27.74 39.58 -28.8 39.96 -29.9 40.36 C-41.05 44.72 -50.57 50.44 -59.67 58.19 C-60.35 58.72 -61.03 59.25 -61.72 59.8 C-78.1 73.06 -90.22 96 -92.51 116.88 C-92.87 121.89 -92.86 126.91 -92.86 131.94 C-92.87 133.04 -92.88 134.15 -92.9 135.29 C-92.92 146.17 -91.57 156.16 -87.42 166.25 C-87.11 167.02 -86.8 167.79 -86.48 168.59 C-76.22 193.59 -57.55 212.09 -32.91 222.91 C-10.22 231.9 17.5 232.98 40.23 223.61 C66.95 212.06 85.73 192.64 96.7 165.83 C100.69 154.53 101.72 143.44 101.7 131.5 C101.7 130.84 101.7 130.18 101.7 129.5 C101.64 113.69 98.72 101.28 91.33 87.19 C90.83 86.21 90.33 85.22 89.81 84.21 C77.19 60.97 55.02 44.54 29.83 37 C12.61 32.47 -10.01 33 -26.67 39.19 Z " fill="#243044" transform="translate(132.671875,17.80859375)"/><path d="M0 0 C2.08 0.02 4.17 0 6.25 -0.03 C24.89 -0.06 42.06 6.18 57.19 16.98 C59.52 18.52 59.52 18.52 61.52 18.52 C62.67 16.05 62.67 16.05 68.52 3.52 C72.48 3.52 76.44 3.52 80.52 3.52 C82.91 53.07 82.91 53.07 82.52 75.52 C77.9 75.52 73.28 75.52 68.52 75.52 C68.15 74.58 67.79 73.63 67.42 72.66 C62.54 60.13 57.55 48.69 48.52 38.52 C47.95 37.87 47.39 37.22 46.8 36.56 C38.64 27.77 28.96 24.33 17.52 21.52 C16.87 21.35 16.23 21.17 15.57 20.99 C5.43 18.68 -7.33 19.66 -16.48 24.52 C-23.88 29.56 -27.67 35.08 -30.48 43.52 C-31.32 52.59 -30.31 60.22 -24.9 67.71 C-19.02 74.71 -12.32 79.96 -4.29 84.27 C-3.52 84.7 -2.74 85.12 -1.95 85.56 C3.81 88.68 9.65 91.62 15.52 94.52 C28.48 100.94 41.07 107.73 53.14 115.71 C53.86 116.18 54.59 116.66 55.33 117.15 C63.01 122.33 69.61 128.06 75.21 135.46 C75.68 136.07 76.15 136.69 76.63 137.32 C77.94 139.05 79.23 140.78 80.52 142.52 C81.06 143.24 81.6 143.97 82.15 144.71 C92.8 160.26 93.57 181.51 91.06 199.63 C87.44 217.07 75.7 232.4 61.45 242.75 C58.2 244.82 54.91 246.7 51.52 248.52 C50.94 248.84 50.35 249.15 49.75 249.47 C27.11 261.48 -3.14 264.07 -27.88 256.79 C-29.07 256.37 -30.26 255.95 -31.48 255.52 C-31.82 255.41 -31.82 255.41 -33.51 254.84 C-42.55 251.79 -51.07 248.02 -59.48 243.52 C-59.73 244.07 -59.98 244.62 -60.23 245.19 C-61.73 247.99 -63.47 250.32 -65.48 252.77 C-65.83 253.22 -65.83 253.22 -67.61 255.47 C-71.78 258.44 -75.52 257.93 -80.48 257.52 C-82.05 240.24 -83.57 222.96 -84.97 205.67 C-85.1 204.05 -85.24 202.43 -85.37 200.81 C-86.16 191.35 -86.68 182.02 -86.48 172.52 C-85.09 172.19 -83.69 171.85 -82.29 171.52 C-81.52 171.34 -80.74 171.15 -79.94 170.96 C-77.4 170.51 -75.05 170.45 -72.48 170.52 C-72.31 171.07 -72.14 171.63 -71.97 172.2 C-66.87 188.56 -61.12 203.86 -50.48 217.52 C-50.01 218.15 -49.55 218.78 -49.06 219.44 C-40.15 230.78 -25.51 237.46 -11.48 239.52 C-7.23 239.76 -2.99 239.75 1.27 239.77 C2.4 239.79 3.53 239.81 4.69 239.83 C17.27 239.89 26.52 236.36 36.77 229.27 C43.76 222.28 46.56 213.78 46.83 204.02 C46.66 195.12 43.32 189.06 37.52 182.52 C31.15 176.79 23.93 172.74 16.39 168.77 C15.26 168.17 14.12 167.56 12.95 166.93 C5.62 163.06 -1.79 159.41 -9.29 155.9 C-37.27 142.77 -66.07 126.45 -77.65 96.03 C-84.01 78.17 -83.3 58.7 -75.48 41.52 C-71.58 34.05 -66.49 28.37 -60.48 22.52 C-59.8 21.84 -59.12 21.17 -58.42 20.47 C-42.85 5.87 -20.91 -0.26 0 0 Z " fill="#243044" transform="translate(579.482177734375,21.478515625)"/><path d="M0 0 C0.16 3.8 0.16 3.8 1 23 C2.65 21.68 4.3 20.36 6 19 C25.32 4.21 47.03 -0.51 71 1 C83.68 2.71 95.1 10.13 103 20 C109.87 30.9 111.31 41.39 111.23 54.06 C111.23 55.22 111.23 56.38 111.23 57.58 C111.23 61.39 111.21 65.2 111.2 69.01 C111.19 71.66 111.19 74.32 111.19 76.97 C111.18 83.22 111.16 89.47 111.14 95.72 C111.12 102.84 111.11 109.97 111.1 117.09 C111.08 131.72 111.04 146.36 111 161 C111.3 161.03 111.3 161.03 112.82 161.19 C113.22 161.23 113.22 161.23 115.24 161.44 C116.03 161.52 116.82 161.61 117.63 161.69 C121.18 162.15 124.56 163.04 128 164 C128.33 164.09 128.33 164.09 130.02 164.54 C134.86 165.86 134.86 165.86 136 167 C136 170.96 136 174.92 136 179 C103.33 179 70.66 179 37 179 C37 175.04 37 171.08 37 167 C54.8 161 54.8 161 60 161 C59.96 147.37 59.9 133.74 59.82 120.11 C59.78 113.78 59.74 107.45 59.73 101.12 C59.71 95 59.68 88.89 59.63 82.77 C59.62 80.45 59.61 78.12 59.61 75.79 C59.61 72.52 59.58 69.25 59.55 65.98 C59.55 65.03 59.56 64.08 59.56 63.1 C59.41 53.53 56.75 44.7 50.07 37.66 C46.45 34.76 42.4 33.31 38 32 C37.36 31.81 36.71 31.62 36.05 31.42 C28.08 29.79 19.37 30.53 12 34 C8.43 36.38 5.04 38.96 2 42 C1.89 43.54 1.85 45.09 1.84 46.64 C1.83 47.64 1.82 48.64 1.81 49.68 C1.81 50.79 1.8 51.89 1.79 53.04 C1.78 54.2 1.77 55.36 1.76 56.55 C1.73 60.41 1.71 64.27 1.68 68.13 C1.66 70.8 1.64 73.46 1.62 76.13 C1.57 82.44 1.53 88.76 1.48 95.07 C1.43 102.26 1.38 109.45 1.32 116.63 C1.21 131.42 1.1 146.21 1 161 C2.11 161.15 3.21 161.31 4.35 161.46 C7.17 161.88 9.69 162.37 12.4 163.19 C13.15 163.41 13.89 163.64 14.66 163.87 C15.41 164.1 16.16 164.33 16.94 164.56 C17.72 164.8 18.5 165.03 19.3 165.27 C21.2 165.84 23.1 166.42 25 167 C25 170.96 25 174.92 25 179 C-8 179 -41 179 -75 179 C-75 175.04 -75 171.08 -75 167 C-73.09 166.36 -71.17 165.74 -69.25 165.12 C-68.72 164.95 -68.72 164.95 -66.02 164.07 C-60.76 162.67 -55.36 161.89 -50 161 C-50 118.76 -50 76.52 -50 33 C-51.98 32.67 -53.96 32.34 -56 32 C-57.6 31.5 -59.18 30.96 -60.74 30.37 C-61.58 30.06 -62.42 29.75 -63.28 29.42 C-64.14 29.1 -64.99 28.77 -65.88 28.44 C-66.75 28.11 -67.63 27.78 -68.54 27.44 C-70.69 26.63 -72.85 25.82 -75 25 C-75 22.36 -75 19.72 -75 17 C-70.44 15.39 -65.84 14.19 -61.12 13.12 C-54.94 11.7 -48.77 10.21 -42.62 8.65 C-38.25 7.55 -33.88 6.49 -29.51 5.45 C-28.94 5.31 -28.94 5.31 -26.07 4.63 C-23.8 4.09 -21.52 3.55 -19.25 3.02 C-18.73 2.89 -18.73 2.89 -16.1 2.27 C-15.63 2.16 -15.63 2.16 -13.27 1.6 C-7.23 0 -7.23 0 0 0 Z " fill="#243044" transform="translate(346,100)"/><path d="M0 0 C3.6 2.78 6.84 5.74 10 9 C10.55 9.53 11.1 10.05 11.66 10.6 C15.29 14.38 17.71 18.8 20.19 23.38 C20.52 23.99 20.85 24.6 21.2 25.23 C25.76 33.96 27.61 42.5 28.75 52.25 C28.89 53.31 29.03 54.37 29.17 55.47 C30.25 64.31 30.25 64.31 29 69 C28 70 28 70 26 70.12 C25.12 70.12 24.23 70.12 23.32 70.12 C22.82 70.12 22.82 70.12 20.26 70.12 C19.7 70.12 19.7 70.12 16.87 70.11 C15.7 70.11 14.53 70.11 13.32 70.11 C10.1 70.11 6.89 70.11 3.67 70.1 C0.31 70.1 -3.05 70.09 -6.41 70.09 C-12.78 70.09 -19.15 70.08 -25.52 70.07 C-32.77 70.06 -40.01 70.06 -47.26 70.05 C-62.17 70.04 -77.09 70.02 -92 70 C-91.7 73.69 -91.39 77.39 -91.08 81.08 C-90.99 82.12 -90.91 83.16 -90.82 84.23 C-89.56 99.06 -85.92 111.75 -75.46 122.93 C-62.85 133.54 -47.82 135 -32 134 C-18.15 132.49 -4.28 127.65 6.3 118.38 C8 117 8 117 11 116 C11.33 115.34 11.66 114.68 12 114 C13 112 13 112 16 111 C18.04 112.43 18.04 112.43 20.19 114.44 C20.55 114.77 20.55 114.77 22.36 116.43 C22.63 116.69 22.63 116.69 24 118 C19.45 134.51 8.3 146.92 -6 156 C-29.62 168.99 -58.86 173.51 -85 166 C-106.74 159.27 -125.99 146.91 -136.96 126.43 C-148.93 102.82 -151.09 73.21 -142.88 48.06 C-138.49 36.5 -132.2 26.27 -124 17 C-123.74 16.69 -123.74 16.69 -122.4 15.15 C-94.16 -15.31 -34.51 -23.64 0 0 Z M-73 10 C-73.7 10.53 -74.4 11.07 -75.12 11.62 C-85.34 20.61 -90.53 35.4 -91.69 48.62 C-91.8 50.42 -91.9 52.21 -92 54 C-77.46 54.18 -62.96 53.61 -48.44 53 C-46.06 52.9 -43.68 52.81 -41.3 52.71 C-35.53 52.48 -29.77 52.24 -24 52 C-23.88 47.85 -23.81 43.71 -23.75 39.56 C-23.72 38.4 -23.68 37.23 -23.65 36.03 C-23.55 26.86 -25.06 19.71 -31.25 12.69 C-31.51 12.38 -31.51 12.38 -32.83 10.82 C-39.01 5.63 -44.92 4.3 -52.88 4.44 C-53.76 4.45 -54.64 4.46 -55.55 4.47 C-62.34 4.7 -67.55 5.72 -73 10 Z " fill="#243044" transform="translate(1164,113)"/><path d="M0 0 C0 52.8 0 105.6 0 160 C2.97 160.33 5.94 160.66 9 161 C10.62 161.35 12.23 161.73 13.82 162.19 C14.6 162.41 15.38 162.64 16.19 162.87 C16.58 162.98 16.58 162.98 18.56 163.56 C19.38 163.8 20.2 164.03 21.04 164.27 C23.03 164.84 25.01 165.42 27 166 C27 169.96 27 173.92 27 178 C-7.98 178 -42.96 178 -79 178 C-79 174.04 -79 170.08 -79 166 C-73.8 164.48 -68.58 163.12 -63.31 161.88 C-62.94 161.78 -62.94 161.78 -61.05 161.32 C-57.58 160.5 -54.59 160 -51 160 C-51 117.76 -51 75.52 -51 32 C-53.97 31.34 -56.94 30.68 -60 30 C-62.81 29.18 -65.59 28.33 -68.38 27.44 C-69.07 27.22 -69.77 27 -70.49 26.77 C-73.33 25.86 -76.17 24.94 -79 24 C-79 21.03 -79 18.06 -79 15 C-63.91 11.48 -48.81 8.05 -33.69 4.69 C-32.89 4.51 -32.1 4.33 -31.28 4.15 C-29 3.65 -26.73 3.14 -24.45 2.64 C-23.77 2.49 -23.09 2.34 -22.39 2.18 C-14.47 0.43 -8.48 0 0 0 Z " fill="#243044" transform="translate(767,101)"/><path d="M0 0 C6.4 3.88 12.2 9.8 14.38 17.06 C15.18 25.05 15.68 33.27 10.98 40.17 C4.61 47.67 -1.34 51.45 -11.18 52.41 C-20.64 52.78 -27.52 51.61 -34.68 45.23 C-40.83 38.75 -42.75 32.98 -43.12 24.12 C-42.91 16.18 -40.92 11.5 -35.46 5.81 C-26.06 -2.97 -12.11 -5.48 0 0 Z " fill="#243044" transform="translate(755.625,23.9375)"/><path d="M0 0 C1.29 1.53 1.29 1.53 2.62 3.5 C3.07 4.15 3.52 4.8 3.98 5.47 C4.31 5.97 4.65 6.48 5 7 C3.46 11.1 0.85 12.88 -2.62 15.44 C-3.81 16.32 -4.99 17.21 -6.18 18.1 C-6.49 18.33 -6.49 18.33 -8.07 19.52 C-11.38 22.06 -14.59 24.72 -17.81 27.38 C-29.07 36.58 -40.52 45.49 -53 53 C-53.53 51.11 -54.05 49.21 -54.56 47.31 C-54.85 46.26 -55.14 45.2 -55.44 44.11 C-56.02 40.86 -55.95 39.13 -55 36 C-53.44 34.34 -53.44 34.34 -51.41 32.87 C-50.66 32.32 -49.9 31.76 -49.12 31.19 C-48.3 30.61 -47.47 30.03 -46.62 29.44 C-45.78 28.83 -44.93 28.21 -44.05 27.58 C-36.73 22.38 -29.19 17.56 -21.55 12.84 C-16.45 9.69 -11.48 6.35 -6.54 2.94 C-2.21 0 -2.21 0 0 0 Z " fill="#232223" transform="translate(124,152)"/><path d="M0 0 C2.12 1.95 2.95 2.85 3.81 5.69 C5.19 9.54 7.2 12.11 9.76 15.27 C11 17 11 17 11 19 C11.66 19 12.32 19 13 19 C13 19.66 13 20.32 13 21 C14.32 21.66 15.64 22.32 17 23 C14.06 25.13 11.13 27.25 8.19 29.38 C7.35 29.98 6.52 30.58 5.66 31.2 C4.86 31.78 4.06 32.36 3.23 32.96 C2.86 33.23 2.86 33.23 0.99 34.58 C-3.81 38 -3.81 38 -5.96 37.97 C-9 36.53 -9.99 34.36 -11.69 31.5 C-14.99 26.01 -14.99 26.01 -16 25 C-16.04 22.67 -16.04 20.33 -16 18 C-16 17.01 -16 16.02 -16 15 C-11.59 8.79 -6.22 4.27 0 0 Z " fill="#838383" transform="translate(178,101)"/><path d="M0 0 C2.24 1.98 2.24 1.98 4.31 4.62 C5.01 5.48 5.71 6.34 6.43 7.23 C8.26 10.47 8.47 12.33 8 16 C6 18 6 18 4.08 18.02 C3.33 17.95 2.58 17.88 1.81 17.81 C-2.64 17.73 -5.24 18.64 -8.7 21.43 C-10.84 24.01 -10.82 26.75 -11 30 C-13 32 -13 32 -15.75 32.56 C-20.53 31.73 -22.28 28.82 -25 25 C-27.3 21.55 -27.34 20.05 -27 16 C-25 14 -25 14 -23.01 13.91 C-22.63 13.94 -22.63 13.94 -20.69 14.06 C-16.56 14.18 -14.4 13.47 -11 11 C-10.34 11 -9.68 11 -9 11 C-8.9 9.74 -8.79 8.48 -8.69 7.19 C-8.36 4.63 -8.13 3.2 -6.75 1 C-4.28 -0.41 -2.82 -0.37 0 0 Z " fill="#282728" transform="translate(152,128)"/><path d="M0 0 C-0.33 1.65 -0.66 3.3 -1 5 C-0.34 5.33 0.32 5.66 1 6 C-0.65 6.99 -2.3 7.98 -4 9 C-4 8.34 -4 7.68 -4 7 C-6.97 9.31 -9.94 11.62 -13 14 C-12.67 14.66 -12.34 15.32 -12 16 C-12.5 16.35 -13.01 16.71 -13.53 17.07 C-15.81 18.67 -18.09 20.27 -20.38 21.88 C-20.77 22.15 -20.77 22.15 -22.78 23.56 C-23.54 24.09 -24.3 24.63 -25.09 25.18 C-25.44 25.43 -25.44 25.43 -27.21 26.67 C-29 28 -29 28 -31 30 C-31 28.68 -31 27.36 -31 26 C-33.31 26 -35.62 26 -38 26 C-38.33 24.35 -38.66 22.7 -39 21 C-38.35 20.6 -37.69 20.2 -37.02 19.79 C-29.69 15.22 -22.83 10.26 -16 5 C-15.34 5.33 -14.68 5.66 -14 6 C-14.33 6.99 -14.66 7.98 -15 9 C-14.4 8.52 -13.79 8.04 -13.17 7.54 C-12.37 6.91 -11.57 6.28 -10.75 5.62 C-9.96 5 -9.17 4.37 -8.36 3.73 C-3.27 0 -3.27 0 0 0 Z " fill="#212021" transform="translate(211,118)"/><path d="M0 0 C0.33 0.66 0.66 1.32 1 2 C-0.79 3.34 -2.58 4.67 -4.38 6 C-5.37 6.74 -6.37 7.48 -7.4 8.25 C-10 10 -10 10 -12 10 C-12 10.66 -12 11.32 -12 12 C-11.53 11.64 -11.06 11.28 -10.57 10.91 C-10.26 10.67 -10.26 10.67 -8.69 9.5 C-8.07 9.04 -7.46 8.57 -6.82 8.09 C-5 7 -5 7 -2 7 C-1.67 6.34 -1.34 5.68 -1 5 C-0.01 5.33 0.98 5.66 2 6 C1.36 6.48 0.72 6.96 0.07 7.46 C-0.76 8.09 -1.59 8.72 -2.44 9.38 C-3.26 10 -4.08 10.63 -4.93 11.27 C-7 13 -7 13 -8 15 C-5.2 13.35 -2.49 11.65 0.19 9.81 C3 8 3 8 5 8 C3.89 11.32 3.41 11.69 0.64 13.57 C-0.06 14.05 -0.75 14.53 -1.47 15.02 C-2.22 15.53 -2.98 16.04 -3.75 16.56 C-10.54 21.22 -17.02 26.09 -23.36 31.33 C-26 33 -26 33 -28.36 32.76 C-28.63 32.64 -28.63 32.64 -30 32 C-30.23 27.53 -30.19 23.58 -27.42 19.91 C-25.05 17.76 -22.59 15.88 -20 14 C-19.44 13.59 -18.88 13.17 -18.3 12.75 C-12.31 8.34 -6.21 4.11 0 0 Z " fill="#232223" transform="translate(183,85)"/><path d="M0 0 C0 0.66 0 1.32 0 2 C-1.43 3.26 -1.43 3.26 -3.45 4.69 C-3.82 4.95 -3.82 4.95 -5.69 6.29 C-6.49 6.86 -7.3 7.42 -8.12 8 C-9.78 9.17 -11.44 10.34 -13.09 11.51 C-13.92 12.1 -14.75 12.68 -15.6 13.28 C-17.79 14.85 -19.93 16.45 -22.07 18.08 C-22.68 18.55 -23.3 19.01 -23.93 19.49 C-25.07 20.35 -26.2 21.22 -27.32 22.1 C-31.27 25.04 -34.14 25.58 -39 25 C-41 23 -41 23 -41.46 20.62 C-41 18 -41 18 -38.69 15.97 C-37.66 15.34 -36.63 14.71 -35.56 14.06 C-34.48 13.38 -33.39 12.7 -32.27 12 C-31.73 11.67 -31.73 11.67 -29 10 C-27.24 8.84 -25.49 7.68 -23.75 6.5 C-22.5 5.67 -21.25 4.83 -20 4 C-19.67 4.99 -19.34 5.98 -19 7 C-18.34 7.33 -17.68 7.66 -17 8 C-17 8.33 -17 8.66 -17 9 C-14.06 8.19 -14.06 8.19 -11 7 C-10.67 6.01 -10.34 5.02 -10 4 C-7.94 3.31 -7.94 3.31 -6 3 C-6 2.34 -6 1.68 -6 1 C-3 0 -3 0 0 0 Z " fill="#242424" transform="translate(220,132)"/><path d="M0 0 C0.66 0.33 1.32 0.66 2 1 C-6.16 7.01 -14.32 12.99 -22.61 18.83 C-24.9 20.45 -27.01 22.01 -29 24 C-32 24.31 -32 24.31 -35 24 C-37.16 20.76 -37.55 19.76 -37 16 C-35.35 14.15 -35.35 14.15 -33.06 12.45 C-32.66 12.14 -32.66 12.14 -30.6 10.58 C-29.74 9.96 -28.88 9.33 -28 8.69 C-27.57 8.36 -27.57 8.36 -25.4 6.73 C-23.28 5.14 -21.14 3.56 -19 2 C-17 3 -17 3 -16.06 5 C-15 7 -15 7 -12 8 C-9.59 6.6 -9.59 6.6 -6.94 4.62 C-2.06 1.03 -2.06 1.03 0 0 Z " fill="#202020" transform="translate(180,83)"/><path d="M0 0 C-1.65 1.16 -1.65 1.16 -10 7 C-6.06 7 -5.01 5.42 -2 3 C0.31 2.25 0.31 2.25 2 2 C0.53 5.89 -1.51 6.94 -5 9 C-5.33 9.99 -5.66 10.98 -6 12 C-2.95 12.98 -1.05 12.98 2 12 C-0.13 14.34 -2.12 15.71 -5 17 C-9.88 13.25 -9.88 13.25 -11 11 C-11.96 11.77 -12.93 12.54 -13.92 13.34 C-15.2 14.35 -16.47 15.36 -17.75 16.38 C-18.38 16.88 -19.02 17.39 -19.67 17.91 C-20.29 18.4 -20.91 18.89 -21.55 19.4 C-21.83 19.62 -21.83 19.62 -23.26 20.76 C-25.1 22.07 -26.96 23.04 -29 24 C-29 19.58 -27.7 17.28 -24.75 14.19 C-7.13 -2.38 -7.13 -2.38 0 0 Z " fill="#3C3B3B" transform="translate(172,75)"/><path d="M0 0 C2.88 -0.12 2.88 -0.12 6 0 C8 2 8 2 8.29 3.92 C8.12 7.61 7.81 10.1 5.29 12.92 C2.95 14.77 0.56 16.43 -1.94 18.06 C-3.68 19.26 -5.42 20.47 -7.16 21.67 C-7.99 22.24 -8.83 22.81 -9.7 23.4 C-13.34 25.94 -16.71 28.76 -20.09 31.64 C-22.08 33.06 -23.61 33.59 -26 34 C-24.61 30.7 -23.14 29.07 -20.22 27.01 C-19.84 26.74 -19.84 26.74 -17.93 25.38 C-17.53 25.1 -17.53 25.1 -15.5 23.69 C-14.69 23.11 -13.88 22.54 -13.04 21.95 C-10.7 20.29 -8.35 18.64 -6 17 C-4.86 16.2 -3.72 15.4 -2.59 14.59 C-0.4 13.05 1.8 11.52 4 10 C3.25 10.37 2.5 10.75 1.73 11.13 C0.75 11.6 -0.24 12.08 -1.25 12.56 C-2.22 13.04 -3.2 13.51 -4.2 14 C-7.1 15.04 -8.2 15.11 -11 14 C-11.33 12.68 -11.66 11.36 -12 10 C-10.68 9.67 -9.36 9.34 -8 9 C-7.67 9.66 -7.34 10.32 -7 11 C-7.66 11 -8.32 11 -9 11 C-9 11.66 -9 12.32 -9 13 C-7.56 12.24 -6.12 11.46 -4.69 10.69 C-3.89 10.26 -3.09 9.83 -2.26 9.39 C-0.16 8.1 1.35 6.82 3 5 C2 2 2 2 0 0 Z " fill="#4C4C4C" transform="translate(177,74)"/><path d="M0 0 C0.66 0.33 1.32 0.66 2 1 C0.67 2.46 -0.67 3.93 -2 5.39 C-2.33 5.92 -2.66 6.45 -3 7 C-2.67 7.99 -2.34 8.98 -2 10 C-2.06 10.78 -2.12 11.57 -2.19 12.38 C-1.93 15.91 -0.21 17.31 2 20 C2 21.32 2 22.64 2 24 C-0.87 26.17 -2.36 27 -6 27 C-7.61 25.25 -7.61 25.25 -9.19 23 C-9.72 22.26 -10.25 21.51 -10.79 20.75 C-10.99 20.46 -10.99 20.46 -12 19 C-10 17 -8 15 -6 13 C-6.35 12.42 -6.7 11.84 -7.06 11.25 C-8.19 8.55 -8.04 7.7 -7 5 C-5.37 3.52 -5.37 3.52 -3.44 2.25 C-2.8 1.82 -2.16 1.39 -1.5 0.95 C-1 0.64 -0.51 0.32 0 0 Z " fill="#919191" transform="translate(165,111)"/><path d="M0 0 C-0.56 3.27 -1.5 4.83 -4 7 C-3.01 7.33 -2.02 7.66 -1 8 C-1 9.32 -1 10.64 -1 12 C0.32 11.67 1.64 11.34 3 11 C2.67 12.32 2.34 13.64 2 15 C-0.31 15.66 -2.62 16.32 -5 17 C-5.66 15.35 -6.32 13.7 -7 12 C-9.97 13.98 -9.97 13.98 -25 24 C-25.66 23.67 -26.32 23.34 -27 23 C-22.62 18.41 -17.82 14.86 -12.64 11.18 C-10.1 9.09 -9.27 7.92 -8 5 C-3.16 0 -3.16 0 0 0 Z " fill="#494849" transform="translate(207,125)"/><path d="M0 0 C0.41 0.05 0.41 0.05 2.48 0.31 C2.79 0.35 2.79 0.35 4.38 0.56 C3.38 1.22 2.4 1.88 1.38 2.56 C2.03 4.54 2.69 6.52 3.38 8.56 C2.84 8.81 2.3 9.06 1.75 9.31 C-0.62 10.56 -0.62 10.56 -3.69 12.69 C-6.62 14.56 -6.62 14.56 -9.62 14.56 C-8.38 11.1 -6.95 8.42 -4.62 5.56 C-5.7 6.18 -6.77 6.8 -7.88 7.44 C-10.42 8.89 -12.98 10.29 -15.62 11.56 C-15.62 10.57 -15.62 9.58 -15.62 8.56 C-13.66 7.03 -13.66 7.03 -11.12 5.5 C-8.59 3.96 -8.59 3.96 -6.62 2.56 C-6.62 1.9 -6.62 1.24 -6.62 0.56 C-4.1 -0.7 -2.77 -0.36 0 0 Z " fill="#6C6B6C" transform="translate(177.625,72.4375)"/><path d="M0 0 C-0.33 1.32 -0.66 2.64 -1 4 C0.32 4 1.64 4 3 4 C4.12 7.75 4.12 7.75 3 10 C2.01 10 1.02 10 0 10 C0 10.66 0 11.32 0 12 C-2.81 13.56 -2.81 13.56 -6 15 C-6.99 14.67 -7.98 14.34 -9 14 C-9.56 12.06 -9.56 12.06 -10 10 C-10.66 9.34 -11.32 8.68 -12 8 C-10.38 6.66 -8.75 5.33 -7.12 4 C-6.22 3.26 -5.32 2.52 -4.38 1.75 C-2 0 -2 0 0 0 Z " fill="#666565" transform="translate(214,123)"/><path d="M0 0 C0 3 0 3 -1.48 4.76 C-9.49 11.94 -18.99 19.15 -30 20 C-32.94 19.56 -32.94 19.56 -35 19 C-35 18.67 -35 18.34 -35 18 C-33.93 17.73 -32.85 17.46 -31.75 17.19 C-28 16 -28 16 -25.94 14.38 C-24 13 -24 13 -21.31 13.25 C-16.79 12.91 -14.8 10.81 -11.39 7.96 C-7.79 5.01 -3.91 2.52 0 0 Z " fill="#363635" transform="translate(217,139)"/><path d="M0 0 C3.75 3.61 7.02 7.37 10.19 11.5 C10.63 12.06 11.06 12.61 11.51 13.18 C13.93 16.32 15.74 19.24 17 23 C16.34 23.33 16.34 23.33 13 25 C12.34 23.02 11.68 21.04 11 19 C10.34 19 9.68 19 9 19 C7.17 16.62 5.48 14.25 3.81 11.75 C3.34 11.07 2.86 10.39 2.37 9.68 C1.92 9.02 1.48 8.36 1.02 7.67 C0.81 7.37 0.81 7.37 -0.23 5.83 C-1.21 3.51 -0.82 2.33 0 0 Z " fill="#8A8A89" transform="translate(189,93)"/><path d="M0 0 C0 1.65 0 3.3 0 5 C-2.12 6.1 -4.18 7.07 -6.44 7.88 C-9 9 -9 9 -11.62 11.12 C-14 13 -14 13 -17 13 C-15.48 8.45 -11.83 6.5 -8 4 C-12.54 5.27 -15.4 7 -19 10 C-19.66 10 -20.32 10 -21 10 C-21 9.34 -21 8.68 -21 8 C-14.51 1.85 -8.99 -1.4 0 0 Z " fill="#4F4F4F" transform="translate(192,87)"/><path d="M0 0 C-0.12 1.88 -0.12 1.88 -1 4 C-1.82 4.27 -2.65 4.54 -3.5 4.81 C-8.47 6.5 -12 9.67 -16 13 C-17 10 -17 10 -16.36 8.05 C-14.64 5.45 -12.72 3.99 -10.19 2.19 C-9.76 1.87 -9.76 1.87 -7.61 0.29 C-4.53 -1.23 -3.21 -1.03 0 0 Z " fill="#545454" transform="translate(212,115)"/><path d="M0 0 C0.33 0 0.66 0 1 0 C1.2 0.81 1.41 1.62 1.62 2.45 C3.44 7.12 6.16 10.74 9.12 14.75 C10.24 16.26 11.34 17.78 12.45 19.3 C12.94 19.96 13.43 20.62 13.93 21.31 C15 23 15 23 15 25 C15.99 25.33 16.98 25.66 18 26 C16.68 26.33 15.36 26.66 14 27 C11.06 23.25 8.15 19.48 5.27 15.68 C4.17 14.22 3.05 12.76 1.93 11.31 C1.38 10.55 0.82 9.78 0.25 9 C0.01 8.67 0.01 8.67 -1.23 7 C-2 5 -2 5 -1.14 2.25 C-0.76 1.51 -0.39 0.77 0 0 Z " fill="#A2A2A2" transform="translate(192,88)"/><path d="M0 0 C0.66 0 1.32 0 2 0 C1.63 2.71 1.18 3.82 -0.82 5.75 C-1.58 6.3 -2.34 6.86 -3.12 7.44 C-3.53 7.74 -3.53 7.74 -5.57 9.25 C-6.37 9.83 -7.17 10.41 -8 11 C-8.71 11.52 -9.42 12.03 -10.15 12.56 C-11.76 13.72 -13.38 14.86 -15 16 C-16.32 15.34 -17.64 14.68 -19 14 C-18.46 13.61 -17.92 13.22 -17.36 12.82 C-14.93 11.07 -12.5 9.32 -10.06 7.56 C-9.64 7.26 -9.64 7.26 -7.49 5.71 C-6.68 5.13 -5.87 4.54 -5.04 3.94 C-4.29 3.4 -3.54 2.86 -2.77 2.31 C-1 1 -1 1 0 0 Z " fill="#515150" transform="translate(214,137)"/><path d="M0 0 C2.88 0.31 2.88 0.31 6 1 C8.45 4.67 8.72 7.73 8 12 C6.12 14.5 6.12 14.5 4 16 C3.34 16 2.68 16 2 16 C2.33 14.35 2.66 12.7 3 11 C3.99 10.67 4.98 10.34 6 10 C6 9.34 6 8.68 6 8 C5.01 7.67 4.02 7.34 3 7 C3 5.68 3 4.36 3 3 C1.02 3.33 -0.96 3.66 -3 4 C-2.01 2.68 -1.02 1.36 0 0 Z " fill="#484747" transform="translate(214,124)"/><path fill="#243044" d="M108.728271484375 436.73388671875C132.195068359375 436.73388671875 145.906005859375 424.9345703125 145.906005859375 407.6640625C145.906005859375 390.525390625 131.601806640625 382.94482421875 117.033935546875 379.451171875L107.871337890625 377.078125C99.895263671875 375.1005859375 91.128173828125 371.8046875 91.128173828125 363.56494140625C91.128173828125 356.1162109375 97.851806640625 350.64501953125 108.926025390625 350.64501953125C119.538818359375 350.64501953125 126.657958984375 355.52294921875 127.514892578125 363.89453125H144.587646484375C144.126220703125 347.48095703125 130.151611328125 335.681640625 109.189697265625 335.681640625C88.623291015625 335.681640625 73.330322265625 347.283203125 73.330322265625 364.61962890625C73.330322265625 378.46240234375 83.020263671875 386.76806640625 99.433837890625 390.98681640625L110.573974609375 393.88720703125C121.186767578125 396.65576171875 128.305908203125 399.8857421875 128.305908203125 407.5322265625C128.305908203125 415.9697265625 120.197998046875 421.70458984375 108.596435546875 421.70458984375C97.522216796875 421.70458984375 88.755126953125 416.69482421875 87.964111328125 406.345703125H70.627685546875C71.418701171875 425.7255859375 85.854736328125 436.73388671875 108.728271484375 436.73388671875ZM247.611572265625 436.5361328125C273.319580078125 436.5361328125 292.633544921875 417.88134765625 292.633544921875 386.1748046875C292.633544921875 354.40234375 273.319580078125 335.681640625 247.611572265625 335.681640625C221.837646484375 335.681640625 202.457763671875 354.40234375 202.457763671875 386.1748046875C202.457763671875 417.8154296875 221.837646484375 436.5361328125 247.611572265625 436.5361328125ZM247.611572265625 420.78173828125C231.527587890625 420.78173828125 220.123779296875 408.52099609375 220.123779296875 386.1748046875C220.123779296875 363.69677734375 231.527587890625 351.43603515625 247.611572265625 351.43603515625C263.563720703125 351.43603515625 274.901611328125 363.630859375 274.901611328125 386.1748046875C274.901611328125 408.5869140625 263.563720703125 420.78173828125 247.611572265625 420.78173828125ZM352.810791015625 435.2177734375H370.410888671875V395.9306640625H411.280029296875V381.296875H370.410888671875V351.83154296875H415.696533203125V337.0H352.810791015625ZM471.259521484375 351.83154296875H501.581787109375V435.2177734375H519.181884765625V351.83154296875H549.438232421875V337.0H471.259521484375ZM628.204345703125 435.2177734375H648.375244140625L662.679443359375 380.96728515625C664.591064453125 373.650390625 665.843505859375 366.00390625 667.161865234375 357.89599609375C668.612060546875 366.33349609375 669.996337890625 374.11181640625 671.776123046875 380.96728515625L686.080322265625 435.2177734375H706.251220703125L732.816162109375 337.0H713.831787109375L701.109619140625 389.27294921875C699.066162109375 398.10595703125 697.286376953125 408.12548828125 695.638427734375 417.74951171875C693.858642578125 408.12548828125 692.012939453125 398.10595703125 689.837646484375 389.27294921875L676.588134765625 337.0H657.933349609375L644.617919921875 389.27294921875C642.376708984375 398.171875 640.596923828125 408.3232421875 638.817138671875 418.0791015625C637.169189453125 408.3232421875 635.455322265625 398.171875 633.411865234375 389.27294921875L620.623779296875 337.0H601.705322265625ZM782.907958984375 435.2177734375H802.156005859375L810.197998046875 410.89404296875H846.914306640625L855.285888671875 435.2177734375H874.599853515625L839.531494140625 337.0H817.185302734375ZM814.878173828125 396.7216796875 819.031005859375 384.197265625C821.733642578125 375.43017578125 824.699951171875 364.421875 828.193603515625 350.7109375C831.819091796875 364.2900390625 834.917236328125 375.16650390625 837.817626953125 384.197265625L842.102294921875 396.7216796875ZM931.217529296875 435.2177734375H948.817626953125V399.16064453125H967.142822265625L986.456787109375 435.2177734375H1006.166259765625L984.874755859375 396.1943359375C996.476318359375 391.580078125 1002.540771484375 381.75830078125 1002.540771484375 368.44287109375C1002.540771484375 349.72216796875 990.543701171875 337.0 967.933837890625 337.0H931.217529296875ZM948.817626953125 384.5927734375V351.765625H965.231201171875C978.612548828125 351.765625 984.545166015625 357.9619140625 984.545166015625 368.44287109375C984.545166015625 378.85791015625 978.612548828125 384.5927734375 965.363037109375 384.5927734375ZM1062.783935546875 435.2177734375H1126.856201171875V420.38623046875H1080.384033203125V392.96435546875H1123.164794921875V378.33056640625H1080.384033203125V351.83154296875H1126.592529296875V337.0H1062.783935546875Z"/></svg>